<svg width="24" height="24" viewBox="0 0 24 24" fill="none" xmlns="http://www.w3.org/2000/svg">
<g clip-path="url(#clip0)">
<path d="M23.7 13.08C23.4896 13.7156 23.1012 14.2775 22.581 14.699L15.155 20.895C14.2525 21.5986 13.1409 21.9807 11.9965 21.9807C10.8521 21.9807 9.7405 21.5986 8.83799 20.895L1.41199 14.7C0.894464 14.2754 0.506429 13.7141 0.291991 13.08C0.0795981 13.7279 0.0732516 14.4258 0.273825 15.0774C0.474398 15.7291 0.872031 16.3026 1.41199 16.719L8.83799 22.915C9.7405 23.6186 10.8521 24.0007 11.9965 24.0007C13.1409 24.0007 14.2525 23.6186 15.155 22.915L22.581 16.719C23.1209 16.3026 23.5186 15.7291 23.7192 15.0774C23.9197 14.4258 23.9134 13.7279 23.701 13.08H23.7ZM8.83799 1.086C9.7405 0.382374 10.8521 0.00025177 11.9965 0.00025177C13.1409 0.00025177 14.2525 0.382374 15.155 1.086L22.581 7.282C22.987 7.58954 23.3163 7.98695 23.543 8.44308C23.7697 8.8992 23.8877 9.40164 23.8877 9.911C23.8877 10.4204 23.7697 10.9228 23.543 11.3789C23.3163 11.835 22.987 12.2325 22.581 12.54L15.155 18.727C14.2525 19.4306 13.1409 19.8127 11.9965 19.8127C10.8521 19.8127 9.7405 19.4306 8.83799 18.727L1.41199 12.53C1.00784 12.2223 0.680226 11.8254 0.454705 11.3702C0.229183 10.9151 0.111847 10.414 0.111847 9.906C0.111847 9.39804 0.229183 8.89694 0.454705 8.44178C0.680226 7.98662 1.00784 7.58971 1.41199 7.282L8.83799 1.086Z" fill="black"/>
</g>
<defs>
<clipPath id="clip0">
<rect width="24" height="24" fill="white"/>
</clipPath>
</defs>
</svg>
